<svg xmlns="http://www.w3.org/2000/svg" viewBox="0 0 484.18 549.76"><defs><style>.cls-3{fill:#0059a1}.cls-4{fill:#88929d}.cls-8{fill:#126aa8}</style><linearGradient id="linear-gradient" x1="20.76" y1="180.95" x2="460.04" y2="302.3" gradientUnits="userSpaceOnUse"><stop offset="0" stop-color="#f4f4f4"/><stop offset="0.98" stop-color="#eaeaea"/></linearGradient><linearGradient id="linear-gradient-2" x1="49.29" y1="169.48" x2="426.44" y2="315.3" gradientUnits="userSpaceOnUse"><stop offset="0" stop-color="#e5e6e7"/><stop offset="0.41" stop-color="#ecedee"/><stop offset="1" stop-color="#fff"/></linearGradient></defs><g id="Layer_2" data-name="Layer 2"><g id="Layer_1-2" data-name="Layer 1"><circle cx="242.09" cy="242.09" r="242.09" style="fill:url(#linear-gradient)"/><circle cx="245.3" cy="245.26" r="209.38" style="fill:url(#linear-gradient-2)"/><rect class="cls-3" x="279.81" y="144.15" width="20.21" height="88.24" transform="translate(-48.21 260.15) rotate(-45)"/><rect class="cls-4" x="259.6" y="96.33" width="20.21" height="88.24" transform="translate(-20.32 231.85) rotate(-45)"/><rect class="cls-4" x="210.8" y="145.13" width="20.21" height="88.24" transform="translate(-69.12 211.63) rotate(-45)"/><path d="M176.64,104.08l-14.3,14.29h0l-34.51,34.51h0l-14.29,14.29,62.4,62.4.51-.51,13.78-13.78,34.51-34.51,14.11-14.11.18-.18Zm-.7,96.91-33.81-33.82,34.51-34.51,33.81,33.82Z" style="fill:#008944"/><rect class="cls-4" x="259.41" y="144.62" width="20.21" height="88.24" transform="translate(212.4 -135.3) rotate(45)"/><rect x="211.15" y="96.68" width="20.21" height="88.24" transform="translate(164.36 -115.21) rotate(45)" style="fill:#8a949f"/><rect class="cls-3" x="280.16" y="95.69" width="20.21" height="88.24" transform="translate(183.88 -164.3) rotate(45)"/><rect class="cls-3" x="328.61" y="95.35" width="20.21" height="88.24" transform="translate(0.59 280.36) rotate(-45)"/><rect class="cls-3" x="328.43" y="143.63" width="20.21" height="88.24" transform="translate(231.92 -184.39) rotate(45)"/><text transform="translate(100.89 322.48)" style="font-size:93.97px;font-family:Sylfaen">OFPPT</text><path class="cls-8" d="M129.76,370.26a48,48,0,0,1-2.44,6.09H109.89l.24-1.17c2.79-.23,3.16-.52,3.69-3.3l2.84-14.62c.52-2.64.18-2.86-2.7-3.1l.3-1.19h10.49l-.23,1.19c-3,.21-3.26.49-3.74,3.12L118,371.49c-.51,2.69-.31,3.35,1.88,3.35h2c1.74,0,2.77-.18,3.91-1.22a16.86,16.86,0,0,0,2.79-3.81Z"/><path class="cls-8" d="M148.33,372.85c-1.88,2.47-4.37,3.93-5.73,3.93-1.12,0-1.67-1-1-4.31l.34-1.69a19.62,19.62,0,0,1-4,4.39,5.91,5.91,0,0,1-3.59,1.61c-1.42,0-2.55-1.48-2.55-4.39a13.25,13.25,0,0,1,4-9.45A11.37,11.37,0,0,1,143,360a32.63,32.63,0,0,1,4.73.63c-.69,2.62-1.9,8.11-2.47,11.48-.15.93-.11,1.4.18,1.4s1.21-.52,2.34-1.68Zm-7.24-2.94a10.85,10.85,0,0,0,1.71-3.7c.34-1.44.73-3.09.87-4a6.35,6.35,0,0,0-2.46-.53c-3.63,0-5.38,5.8-5.33,9.91,0,1.44.39,2.16,1,2.16C137.76,373.73,139.15,372.67,141.09,369.91Z"/><path class="cls-8" d="M182.39,354.16c-2.37.3-3,.53-4.91,3.67-2.48,3.94-7.87,12.77-11.43,18.88h-1.57c-.88-6.65-2.19-15.33-2.85-19.37-.43-2.69-.8-2.9-3.13-3.18l.3-1.19h9.71l-.33,1.19-.84.12c-1.41.2-1.86.46-1.72,1.87.23,2.23,1.27,9,2.06,14.76,2.61-4.22,6.58-10.94,8.26-14,1.1-2,.48-2.43-1.31-2.67l-.76-.09.31-1.19h8.47Z"/><path class="cls-8" d="M192.17,365.78a11.11,11.11,0,0,1-5.15,9.56,9.3,9.3,0,0,1-4.73,1.44c-4,0-5.24-3.06-5.24-5.8a10.76,10.76,0,0,1,6.33-10.16A9.72,9.72,0,0,1,187,360C190.41,360,192.17,362.25,192.17,365.78Zm-11,5.2c0,2.75.92,4.22,2.5,4.22,2.81,0,4.39-5.29,4.39-9.53,0-2.87-1-4.1-2.46-4.1C182.3,361.57,181.18,368,181.18,371Z"/><path class="cls-8" d="M202.67,373c-2.1,2.62-4.55,3.82-5.89,3.82-1.1,0-1.66-1-1-3.67s1.53-6.06,2.12-8.65c.22-.91.18-1.24-.1-1.24a5.19,5.19,0,0,0-2.12,1.34l-.52-1.08c2.16-2.16,4.68-3.47,5.95-3.47,1.11,0,1.31,1.15.56,4.26-.59,2.35-1.4,5.64-2,8-.25.92-.25,1.39,0,1.39a5.38,5.38,0,0,0,2.43-1.74Zm.75-18.28a2.46,2.46,0,0,1-2.39,2.55,1.88,1.88,0,0,1-2-2,2.54,2.54,0,0,1,2.52-2.54A1.81,1.81,0,0,1,203.42,354.68Z"/><path class="cls-8" d="M209.69,376.78c-2,0-4.37-1.13-4.37-5.43a11.91,11.91,0,0,1,4.19-9.24A10,10,0,0,1,215,360c2.42,0,3.6,1.41,3.6,3.06,0,3.72-5.4,5.24-9.13,5.94,0,.36-.07,1.13-.07,1.42,0,1.94.57,3.72,2.62,3.72,1.71,0,3.56-1,5.3-2.84l.56,1.06C215.08,375.64,212.1,376.78,209.69,376.78Zm-.12-9.07c4.25-.92,5.43-2.48,5.44-4.29,0-1.2-.65-1.77-1.59-1.77S210.37,362.65,209.57,367.71Z"/><path class="cls-8" d="M245.67,372.87c-2.06,2.7-4.42,3.92-5.64,3.92s-1.86-1-1.12-4.44l.32-1.53c-2,2.83-5.35,6-7.84,6-1.66,0-2.82-1.54-2.82-4.59A11.67,11.67,0,0,1,239.39,360a5.28,5.28,0,0,1,2,.31l1-5.07c.29-1.62,0-1.77-1.39-1.9-.34,0-1-.07-1.13-.07l.26-1.11a38.16,38.16,0,0,0,5.2-1,8.36,8.36,0,0,1,1.23-.28c.4,0,.45.37.27,1.13-1.54,6.64-3.39,15.19-4.33,20.23-.18.93-.11,1.37.17,1.37s1.3-.59,2.46-1.83Zm-7-3.24a9.32,9.32,0,0,0,1.53-3.7l.72-3.14a4,4,0,0,0-3.06-1.07c-3.53,0-5.12,5.58-5.12,9.66,0,1.62.44,2.43,1.2,2.43C235.23,373.81,237.11,371.89,238.62,369.63Z"/><path class="cls-8" d="M252.35,376.78c-2,0-4.37-1.13-4.37-5.43a11.91,11.91,0,0,1,4.19-9.24,10,10,0,0,1,5.44-2.1c2.42,0,3.59,1.41,3.59,3.06,0,3.72-5.4,5.24-9.12,5.94,0,.36-.08,1.13-.08,1.42,0,1.94.58,3.72,2.62,3.72,1.71,0,3.56-1,5.3-2.84l.56,1.06C257.73,375.64,254.75,376.78,252.35,376.78Zm-.13-9.07c4.26-.92,5.43-2.48,5.44-4.29,0-1.2-.64-1.77-1.58-1.77S253,362.65,252.22,367.71Z"/><path class="cls-8" d="M278.7,372.93c-2.1,2.62-4.59,3.85-5.87,3.85-1.08,0-1.74-.74-1-4.15,1.1-5.31,2.51-12.05,3.61-17.47.31-1.54.13-1.68-1.16-1.81-.35,0-.93-.11-1.15-.11l.29-1.07a29.84,29.84,0,0,0,5-1,3.61,3.61,0,0,1,1.2-.29c.39,0,.42.37.24,1.22-1.48,6.58-3.27,15.25-4.27,20.13-.19.94-.18,1.31.11,1.31a5.11,5.11,0,0,0,2.39-1.7Z"/><path class="cls-8" d="M282.58,359.19c2.07-.75,3.57-1.82,3.6-3.44,0-1.07-.63-1.38-1.79-1.92a1.08,1.08,0,0,1-.54-1,2,2,0,0,1,2.19-2c1.78,0,3,1.62,2.95,3.53,0,3.23-3.13,5.29-6,6Z"/><path class="cls-8" d="M305.17,376.35h-9.8l.27-1.17c2.54-.27,2.69-.69,2.49-2.33-.18-1.31-.42-2.8-.68-4.47h-7.06c-.66,1.23-1.65,2.87-2.33,4.28-.88,1.77-.65,2.21,2.31,2.52l-.27,1.17h-8.63l.3-1.17c2.56-.34,3-.58,4.91-3.88l10.66-18.48,1.54-.22c1.49,9.47,2.44,14.76,3.19,19.18.44,2.73.68,3.1,3.42,3.4Zm-9.23-18.1h-.07c-1.56,2.9-3.23,5.85-4.63,8.46h6Z"/><path class="cls-8" d="M304.64,363.69c1.63-2.17,3.66-3.68,5-3.68s1.76,1.37,1.95,4.36c.28,4.06.3,6.82.37,8.43,2.06-2.45,5-6,5-8.26a4.34,4.34,0,0,0-.69-2.06c-.1-.25-.22-.46-.07-.75a3.14,3.14,0,0,1,2.53-1.72c1,0,1.51.87,1.55,2.24,0,1.18-.53,2.91-2.25,5.29a119.64,119.64,0,0,1-7.9,9.24h-1.37c-.17-2.64-.37-7.55-.8-11.55-.16-1.59-.31-2.11-.71-2.11s-1,.44-2,1.62Z"/><path class="cls-8" d="M326.36,376.78c-2,0-4.37-1.13-4.37-5.43a11.91,11.91,0,0,1,4.19-9.24,10,10,0,0,1,5.44-2.1c2.42,0,3.6,1.41,3.6,3.06,0,3.72-5.41,5.24-9.13,5.94,0,.36-.07,1.13-.07,1.42,0,1.94.57,3.72,2.62,3.72,1.71,0,3.56-1,5.3-2.84l.56,1.06C331.75,375.64,328.77,376.78,326.36,376.78Zm-.13-9.07c4.26-.92,5.44-2.48,5.45-4.29,0-1.2-.65-1.77-1.59-1.77S327,362.65,326.23,367.71Z"/><path class="cls-8" d="M354.56,372.9c-2.14,2.73-4.57,3.88-5.82,3.88s-1.74-.82-1.05-4c.5-2.34,1.19-5,1.73-7.28.48-2,.24-2.57-.4-2.57-1,0-3.4,1.95-5.3,5.06a10.14,10.14,0,0,0-1.27,3.25c-.36,1.5-.78,3.3-1.1,4.82a22.81,22.81,0,0,0-3.58.77l-.27-.3c.91-3.78,1.91-7.84,2.81-12,.25-1.09.15-1.41-.14-1.41a5.73,5.73,0,0,0-2.17,1.51l-.52-1.08c2.07-2.41,4.08-3.54,5.34-3.54s1.7,1.33.92,4.71l-.36,1.52c2.43-3.4,5.83-6.23,8.32-6.23,1.3,0,2.48.73,1.36,5.55-.47,2-1.13,4.73-1.58,6.69-.19.95-.19,1.35.09,1.35s1.27-.48,2.42-1.75Z"/><path class="cls-8" d="M364.7,373c-2.11,2.62-4.56,3.82-5.9,3.82-1.09,0-1.65-1-1-3.67s1.54-6.06,2.13-8.65c.21-.91.17-1.24-.11-1.24a5.19,5.19,0,0,0-2.12,1.34l-.51-1.08c2.15-2.16,4.67-3.47,5.94-3.47,1.11,0,1.31,1.15.57,4.26-.59,2.35-1.41,5.64-2,8-.25.92-.25,1.39,0,1.39a5.43,5.43,0,0,0,2.42-1.74Zm.75-18.28a2.47,2.47,0,0,1-2.4,2.55,1.88,1.88,0,0,1-2-2,2.54,2.54,0,0,1,2.53-2.54A1.81,1.81,0,0,1,365.45,354.68Z"/><path class="cls-8" d="M367.16,363.59c1.91-2.19,4-3.58,5.45-3.58,1.27,0,1.53,1.67.73,5.12l-.19.85c1.85-3.24,4.14-6,5.79-6a1.88,1.88,0,0,1,1.86,1.83,4.09,4.09,0,0,1-1.68,2.84c-.37.24-.66.24-.86,0-.51-.55-1-1.07-1.42-1.07-1,0-2.78,3-3.32,4.08-1,1.94-1.68,5.34-2.28,8.32a24.66,24.66,0,0,0-3.61.77l-.27-.3c.89-3.52,2-8.33,2.51-10.93.44-2.13.33-2.43.06-2.43a5.57,5.57,0,0,0-2.25,1.53Z"/></g></g></svg>